<svg viewBox="-16 -32 880 192" width="880" height="192" xmlns="http://www.w3.org/2000/svg"><desc>Generated with https://github.com/Platane/snk</desc><style>:root{--cb:#1b1f230a;--cs:#99cccc;--ce:#d4353b;--c0:#d4353b;--c1:#ec4c4b;--c2:#f3b6be;--c3:#ebd5dc;--c4:#eceaed}.c{shape-rendering:geometricPrecision;fill:var(--ce);stroke-width:1px;stroke:var(--cb);animation:none 20100ms linear infinite;width:12px;height:12px}@keyframes c0{18.9%{fill:var(--c4)}18.92%,100%{fill:var(--ce)}}.c.c0{fill:var(--c4);animation-name:c0}@keyframes c1{19.39%{fill:var(--c4)}19.41%,100%{fill:var(--ce)}}.c.c1{fill:var(--c4);animation-name:c1}@keyframes c2{19.89%{fill:var(--c4)}19.91%,100%{fill:var(--ce)}}.c.c2{fill:var(--c4);animation-name:c2}@keyframes c3{20.39%{fill:var(--c4)}20.41%,100%{fill:var(--ce)}}.c.c3{fill:var(--c4);animation-name:c3}@keyframes c4{20.89%{fill:var(--c4)}20.91%,100%{fill:var(--ce)}}.c.c4{fill:var(--c4);animation-name:c4}@keyframes c5{21.38%{fill:var(--c4)}21.4%,100%{fill:var(--ce)}}.c.c5{fill:var(--c4);animation-name:c5}@keyframes c6{21.88%{fill:var(--c4)}21.9%,100%{fill:var(--ce)}}.c.c6{fill:var(--c4);animation-name:c6}@keyframes c7{22.38%{fill:var(--c4)}22.4%,100%{fill:var(--ce)}}.c.c7{fill:var(--c4);animation-name:c7}@keyframes c8{22.88%{fill:var(--c4)}22.9%,100%{fill:var(--ce)}}.c.c8{fill:var(--c4);animation-name:c8}@keyframes c9{23.37%{fill:var(--c4)}23.39%,100%{fill:var(--ce)}}.c.c9{fill:var(--c4);animation-name:c9}@keyframes ca{23.87%{fill:var(--c4)}23.89%,100%{fill:var(--ce)}}.c.ca{fill:var(--c4);animation-name:ca}@keyframes cb{39.79%{fill:var(--c4)}39.81%,100%{fill:var(--ce)}}.c.cb{fill:var(--c4);animation-name:cb}@keyframes cc{39.29%{fill:var(--c4)}39.31%,100%{fill:var(--ce)}}.c.cc{fill:var(--c4);animation-name:cc}@keyframes cd{38.8%{fill:var(--c4)}38.82%,100%{fill:var(--ce)}}.c.cd{fill:var(--c4);animation-name:cd}@keyframes ce{38.3%{fill:var(--c4)}38.32%,100%{fill:var(--ce)}}.c.ce{fill:var(--c4);animation-name:ce}@keyframes cf{29.34%{fill:var(--c4)}29.36%,100%{fill:var(--ce)}}.c.cf{fill:var(--c4);animation-name:cf}@keyframes cg{28.85%{fill:var(--c4)}28.87%,100%{fill:var(--ce)}}.c.cg{fill:var(--c4);animation-name:cg}@keyframes ch{28.35%{fill:var(--c4)}28.37%,100%{fill:var(--ce)}}.c.ch{fill:var(--c4);animation-name:ch}@keyframes ci{27.85%{fill:var(--c4)}27.87%,100%{fill:var(--ce)}}.c.ci{fill:var(--c4);animation-name:ci}@keyframes cj{27.35%{fill:var(--c4)}27.37%,100%{fill:var(--ce)}}.c.cj{fill:var(--c4);animation-name:cj}@keyframes ck{26.86%{fill:var(--c4)}26.88%,100%{fill:var(--ce)}}.c.ck{fill:var(--c4);animation-name:ck}@keyframes cl{26.36%{fill:var(--c4)}26.38%,100%{fill:var(--ce)}}.c.cl{fill:var(--c4);animation-name:cl}@keyframes cm{25.86%{fill:var(--c4)}25.88%,100%{fill:var(--ce)}}.c.cm{fill:var(--c4);animation-name:cm}@keyframes cn{25.36%{fill:var(--c4)}25.38%,100%{fill:var(--ce)}}.c.cn{fill:var(--c4);animation-name:cn}@keyframes co{24.87%{fill:var(--c4)}24.89%,100%{fill:var(--ce)}}.c.co{fill:var(--c4);animation-name:co}@keyframes cp{24.37%{fill:var(--c4)}24.39%,100%{fill:var(--ce)}}.c.cp{fill:var(--c4);animation-name:cp}@keyframes cq{40.29%{fill:var(--c4)}40.31%,100%{fill:var(--ce)}}.c.cq{fill:var(--c4);animation-name:cq}@keyframes cr{40.79%{fill:var(--c4)}40.81%,100%{fill:var(--ce)}}.c.cr{fill:var(--c4);animation-name:cr}@keyframes cs{41.28%{fill:var(--c4)}41.3%,100%{fill:var(--ce)}}.c.cs{fill:var(--c4);animation-name:cs}@keyframes ct{37.8%{fill:var(--c4)}37.82%,100%{fill:var(--ce)}}.c.ct{fill:var(--c4);animation-name:ct}@keyframes cu{29.84%{fill:var(--c4)}29.86%,100%{fill:var(--ce)}}.c.cu{fill:var(--c4);animation-name:cu}@keyframes cv{30.34%{fill:var(--c4)}30.36%,100%{fill:var(--ce)}}.c.cv{fill:var(--c4);animation-name:cv}@keyframes cw{30.84%{fill:var(--c4)}30.86%,100%{fill:var(--ce)}}.c.cw{fill:var(--c4);animation-name:cw}@keyframes cx{31.33%{fill:var(--c4)}31.35%,100%{fill:var(--ce)}}.c.cx{fill:var(--c4);animation-name:cx}@keyframes cy{31.83%{fill:var(--c4)}31.85%,100%{fill:var(--ce)}}.c.cy{fill:var(--c4);animation-name:cy}@keyframes cz{32.33%{fill:var(--c4)}32.35%,100%{fill:var(--ce)}}.c.cz{fill:var(--c4);animation-name:cz}@keyframes c10{32.83%{fill:var(--c4)}32.85%,100%{fill:var(--ce)}}.c.c10{fill:var(--c4);animation-name:c10}@keyframes c11{33.32%{fill:var(--c4)}33.34%,100%{fill:var(--ce)}}.c.c11{fill:var(--c4);animation-name:c11}@keyframes c12{33.82%{fill:var(--c4)}33.84%,100%{fill:var(--ce)}}.c.c12{fill:var(--c4);animation-name:c12}@keyframes c13{34.32%{fill:var(--c4)}34.34%,100%{fill:var(--ce)}}.c.c13{fill:var(--c4);animation-name:c13}@keyframes c14{34.82%{fill:var(--c4)}34.84%,100%{fill:var(--ce)}}.c.c14{fill:var(--c4);animation-name:c14}@keyframes c15{35.31%{fill:var(--c4)}35.33%,100%{fill:var(--ce)}}.c.c15{fill:var(--c4);animation-name:c15}@keyframes c16{35.81%{fill:var(--c4)}35.83%,100%{fill:var(--ce)}}.c.c16{fill:var(--c4);animation-name:c16}@keyframes c17{36.31%{fill:var(--c4)}36.33%,100%{fill:var(--ce)}}.c.c17{fill:var(--c4);animation-name:c17}@keyframes c18{36.81%{fill:var(--c4)}36.83%,100%{fill:var(--ce)}}.c.c18{fill:var(--c4);animation-name:c18}@keyframes c19{37.3%{fill:var(--c4)}37.32%,100%{fill:var(--ce)}}.c.c19{fill:var(--c4);animation-name:c19}@keyframes c1a{51.23%{fill:var(--c4)}51.25%,100%{fill:var(--ce)}}.c.c1a{fill:var(--c4);animation-name:c1a}@keyframes c1b{50.74%{fill:var(--c4)}50.76%,100%{fill:var(--ce)}}.c.c1b{fill:var(--c4);animation-name:c1b}@keyframes c1c{50.24%{fill:var(--c4)}50.26%,100%{fill:var(--ce)}}.c.c1c{fill:var(--c4);animation-name:c1c}@keyframes c1d{49.74%{fill:var(--c4)}49.76%,100%{fill:var(--ce)}}.c.c1d{fill:var(--c4);animation-name:c1d}@keyframes c1e{49.24%{fill:var(--c4)}49.26%,100%{fill:var(--ce)}}.c.c1e{fill:var(--c4);animation-name:c1e}@keyframes c1f{48.75%{fill:var(--c4)}48.77%,100%{fill:var(--ce)}}.c.c1f{fill:var(--c4);animation-name:c1f}@keyframes c1g{48.25%{fill:var(--c4)}48.27%,100%{fill:var(--ce)}}.c.c1g{fill:var(--c4);animation-name:c1g}@keyframes c1h{47.75%{fill:var(--c4)}47.77%,100%{fill:var(--ce)}}.c.c1h{fill:var(--c4);animation-name:c1h}@keyframes c1i{47.25%{fill:var(--c4)}47.27%,100%{fill:var(--ce)}}.c.c1i{fill:var(--c4);animation-name:c1i}@keyframes c1j{46.76%{fill:var(--c4)}46.78%,100%{fill:var(--ce)}}.c.c1j{fill:var(--c4);animation-name:c1j}@keyframes c1k{46.26%{fill:var(--c4)}46.28%,100%{fill:var(--ce)}}.c.c1k{fill:var(--c4);animation-name:c1k}@keyframes c1l{45.76%{fill:var(--c4)}45.78%,100%{fill:var(--ce)}}.c.c1l{fill:var(--c4);animation-name:c1l}@keyframes c1m{45.26%{fill:var(--c4)}45.28%,100%{fill:var(--ce)}}.c.c1m{fill:var(--c4);animation-name:c1m}@keyframes c1n{44.77%{fill:var(--c4)}44.79%,100%{fill:var(--ce)}}.c.c1n{fill:var(--c4);animation-name:c1n}@keyframes c1o{42.28%{fill:var(--c4)}42.3%,100%{fill:var(--ce)}}.c.c1o{fill:var(--c4);animation-name:c1o}@keyframes c1p{42.78%{fill:var(--c4)}42.8%,100%{fill:var(--ce)}}.c.c1p{fill:var(--c4);animation-name:c1p}@keyframes c1q{51.73%{fill:var(--c4)}51.75%,100%{fill:var(--ce)}}.c.c1q{fill:var(--c4);animation-name:c1q}@keyframes c1r{52.23%{fill:var(--c4)}52.25%,100%{fill:var(--ce)}}.c.c1r{fill:var(--c4);animation-name:c1r}@keyframes c1s{52.73%{fill:var(--c4)}52.75%,100%{fill:var(--ce)}}.c.c1s{fill:var(--c4);animation-name:c1s}@keyframes c1t{53.22%{fill:var(--c4)}53.24%,100%{fill:var(--ce)}}.c.c1t{fill:var(--c4);animation-name:c1t}@keyframes c1u{53.72%{fill:var(--c4)}53.74%,100%{fill:var(--ce)}}.c.c1u{fill:var(--c4);animation-name:c1u}@keyframes c1v{54.22%{fill:var(--c4)}54.24%,100%{fill:var(--ce)}}.c.c1v{fill:var(--c4);animation-name:c1v}@keyframes c1w{54.72%{fill:var(--c4)}54.74%,100%{fill:var(--ce)}}.c.c1w{fill:var(--c4);animation-name:c1w}@keyframes c1x{55.21%{fill:var(--c4)}55.23%,100%{fill:var(--ce)}}.c.c1x{fill:var(--c4);animation-name:c1x}@keyframes c1y{55.71%{fill:var(--c4)}55.73%,100%{fill:var(--ce)}}.c.c1y{fill:var(--c4);animation-name:c1y}@keyframes c1z{56.21%{fill:var(--c4)}56.23%,100%{fill:var(--ce)}}.c.c1z{fill:var(--c4);animation-name:c1z}@keyframes c20{56.71%{fill:var(--c4)}56.73%,100%{fill:var(--ce)}}.c.c20{fill:var(--c4);animation-name:c20}@keyframes c21{57.2%{fill:var(--c4)}57.22%,100%{fill:var(--ce)}}.c.c21{fill:var(--c4);animation-name:c21}@keyframes c22{57.7%{fill:var(--c4)}57.72%,100%{fill:var(--ce)}}.c.c22{fill:var(--c4);animation-name:c22}@keyframes c23{44.27%{fill:var(--c4)}44.29%,100%{fill:var(--ce)}}.c.c23{fill:var(--c4);animation-name:c23}@keyframes c24{43.77%{fill:var(--c4)}43.79%,100%{fill:var(--ce)}}.c.c24{fill:var(--c4);animation-name:c24}@keyframes c25{43.27%{fill:var(--c4)}43.29%,100%{fill:var(--ce)}}.c.c25{fill:var(--c4);animation-name:c25}@keyframes c26{68.15%{fill:var(--c4)}68.17%,100%{fill:var(--ce)}}.c.c26{fill:var(--c4);animation-name:c26}@keyframes c27{67.65%{fill:var(--c4)}67.67%,100%{fill:var(--ce)}}.c.c27{fill:var(--c4);animation-name:c27}@keyframes c28{67.15%{fill:var(--c4)}67.17%,100%{fill:var(--ce)}}.c.c28{fill:var(--c4);animation-name:c28}@keyframes c29{66.66%{fill:var(--c4)}66.68%,100%{fill:var(--ce)}}.c.c29{fill:var(--c4);animation-name:c29}@keyframes c2a{66.16%{fill:var(--c4)}66.18%,100%{fill:var(--ce)}}.c.c2a{fill:var(--c4);animation-name:c2a}@keyframes c2b{65.66%{fill:var(--c4)}65.68%,100%{fill:var(--ce)}}.c.c2b{fill:var(--c4);animation-name:c2b}@keyframes c2c{65.16%{fill:var(--c4)}65.18%,100%{fill:var(--ce)}}.c.c2c{fill:var(--c4);animation-name:c2c}@keyframes c2d{64.67%{fill:var(--c4)}64.69%,100%{fill:var(--ce)}}.c.c2d{fill:var(--c4);animation-name:c2d}@keyframes c2e{64.17%{fill:var(--c4)}64.19%,100%{fill:var(--ce)}}.c.c2e{fill:var(--c4);animation-name:c2e}@keyframes c2f{63.67%{fill:var(--c4)}63.69%,100%{fill:var(--ce)}}.c.c2f{fill:var(--c4);animation-name:c2f}@keyframes c2g{63.17%{fill:var(--c4)}63.19%,100%{fill:var(--ce)}}.c.c2g{fill:var(--c4);animation-name:c2g}@keyframes c2h{62.68%{fill:var(--c4)}62.7%,100%{fill:var(--ce)}}.c.c2h{fill:var(--c4);animation-name:c2h}@keyframes c2i{58.2%{fill:var(--c4)}58.22%,100%{fill:var(--ce)}}.c.c2i{fill:var(--c4);animation-name:c2i}@keyframes c2j{58.7%{fill:var(--c4)}58.72%,100%{fill:var(--ce)}}.c.c2j{fill:var(--c4);animation-name:c2j}@keyframes c2k{59.19%{fill:var(--c4)}59.21%,100%{fill:var(--ce)}}.c.c2k{fill:var(--c4);animation-name:c2k}@keyframes c2l{59.69%{fill:var(--c4)}59.71%,100%{fill:var(--ce)}}.c.c2l{fill:var(--c4);animation-name:c2l}@keyframes c2m{68.65%{fill:var(--c4)}68.67%,100%{fill:var(--ce)}}.c.c2m{fill:var(--c4);animation-name:c2m}@keyframes c2n{69.14%{fill:var(--c4)}69.16%,100%{fill:var(--ce)}}.c.c2n{fill:var(--c4);animation-name:c2n}@keyframes c2o{69.64%{fill:var(--c4)}69.66%,100%{fill:var(--ce)}}.c.c2o{fill:var(--c4);animation-name:c2o}@keyframes c2p{70.14%{fill:var(--c4)}70.16%,100%{fill:var(--ce)}}.c.c2p{fill:var(--c4);animation-name:c2p}@keyframes c2q{70.64%{fill:var(--c4)}70.66%,100%{fill:var(--ce)}}.c.c2q{fill:var(--c4);animation-name:c2q}@keyframes c2r{71.13%{fill:var(--c4)}71.15%,100%{fill:var(--ce)}}.c.c2r{fill:var(--c4);animation-name:c2r}@keyframes c2s{71.63%{fill:var(--c4)}71.65%,100%{fill:var(--ce)}}.c.c2s{fill:var(--c4);animation-name:c2s}@keyframes c2t{72.13%{fill:var(--c4)}72.15%,100%{fill:var(--ce)}}.c.c2t{fill:var(--c4);animation-name:c2t}@keyframes c2u{72.63%{fill:var(--c4)}72.65%,100%{fill:var(--ce)}}.c.c2u{fill:var(--c4);animation-name:c2u}@keyframes c2v{73.12%{fill:var(--c4)}73.14%,100%{fill:var(--ce)}}.c.c2v{fill:var(--c4);animation-name:c2v}@keyframes c2w{62.18%{fill:var(--c4)}62.2%,100%{fill:var(--ce)}}.c.c2w{fill:var(--c4);animation-name:c2w}@keyframes c2x{61.68%{fill:var(--c4)}61.7%,100%{fill:var(--ce)}}.c.c2x{fill:var(--c4);animation-name:c2x}@keyframes c2y{61.18%{fill:var(--c4)}61.2%,100%{fill:var(--ce)}}.c.c2y{fill:var(--c4);animation-name:c2y}@keyframes c2z{60.69%{fill:var(--c4)}60.71%,100%{fill:var(--ce)}}.c.c2z{fill:var(--c4);animation-name:c2z}.u{transform-origin:0 0;transform:scale(0,1);animation:none linear 20100ms infinite}@keyframes u0{18.9%{transform:scale(0.000,1)}18.92%,19.39%{transform:scale(0.009,1)}19.41%,19.89%{transform:scale(0.019,1)}19.91%,20.39%{transform:scale(0.028,1)}20.41%,20.89%{transform:scale(0.037,1)}20.91%,21.38%{transform:scale(0.046,1)}21.4%,21.88%{transform:scale(0.056,1)}21.9%,22.38%{transform:scale(0.065,1)}22.4%,22.88%{transform:scale(0.074,1)}22.9%,23.37%{transform:scale(0.083,1)}23.39%,23.87%{transform:scale(0.093,1)}23.89%,24.37%{transform:scale(0.102,1)}24.39%,24.87%{transform:scale(0.111,1)}24.89%,25.36%{transform:scale(0.120,1)}25.38%,25.86%{transform:scale(0.130,1)}25.88%,26.36%{transform:scale(0.139,1)}26.38%,26.86%{transform:scale(0.148,1)}26.88%,27.35%{transform:scale(0.157,1)}27.37%,27.85%{transform:scale(0.167,1)}27.87%,28.35%{transform:scale(0.176,1)}28.37%,28.85%{transform:scale(0.185,1)}28.87%,29.34%{transform:scale(0.194,1)}29.36%,29.84%{transform:scale(0.204,1)}29.86%,30.34%{transform:scale(0.213,1)}30.36%,30.84%{transform:scale(0.222,1)}30.86%,31.33%{transform:scale(0.231,1)}31.35%,31.83%{transform:scale(0.241,1)}31.85%,32.33%{transform:scale(0.250,1)}32.35%,32.83%{transform:scale(0.259,1)}32.85%,33.32%{transform:scale(0.269,1)}33.34%,33.82%{transform:scale(0.278,1)}33.84%,34.32%{transform:scale(0.287,1)}34.34%,34.82%{transform:scale(0.296,1)}34.84%,35.31%{transform:scale(0.306,1)}35.33%,35.81%{transform:scale(0.315,1)}35.83%,36.31%{transform:scale(0.324,1)}36.33%,36.81%{transform:scale(0.333,1)}36.83%,37.3%{transform:scale(0.343,1)}37.32%,37.8%{transform:scale(0.352,1)}37.82%,38.3%{transform:scale(0.361,1)}38.32%,38.8%{transform:scale(0.370,1)}38.82%,39.29%{transform:scale(0.380,1)}39.31%,39.79%{transform:scale(0.389,1)}39.81%,40.29%{transform:scale(0.398,1)}40.31%,40.79%{transform:scale(0.407,1)}40.81%,41.28%{transform:scale(0.417,1)}41.3%,42.28%{transform:scale(0.426,1)}42.3%,42.78%{transform:scale(0.435,1)}42.8%,43.27%{transform:scale(0.444,1)}43.29%,43.77%{transform:scale(0.454,1)}43.79%,44.27%{transform:scale(0.463,1)}44.29%,44.77%{transform:scale(0.472,1)}44.79%,45.26%{transform:scale(0.481,1)}45.28%,45.76%{transform:scale(0.491,1)}45.78%,46.26%{transform:scale(0.500,1)}46.28%,46.76%{transform:scale(0.509,1)}46.78%,47.25%{transform:scale(0.519,1)}47.27%,47.75%{transform:scale(0.528,1)}47.77%,48.25%{transform:scale(0.537,1)}48.27%,48.75%{transform:scale(0.546,1)}48.77%,49.24%{transform:scale(0.556,1)}49.26%,49.74%{transform:scale(0.565,1)}49.76%,50.24%{transform:scale(0.574,1)}50.26%,50.74%{transform:scale(0.583,1)}50.76%,51.23%{transform:scale(0.593,1)}51.25%,51.73%{transform:scale(0.602,1)}51.75%,52.23%{transform:scale(0.611,1)}52.25%,52.73%{transform:scale(0.620,1)}52.75%,53.22%{transform:scale(0.630,1)}53.24%,53.72%{transform:scale(0.639,1)}53.74%,54.22%{transform:scale(0.648,1)}54.24%,54.72%{transform:scale(0.657,1)}54.74%,55.21%{transform:scale(0.667,1)}55.23%,55.71%{transform:scale(0.676,1)}55.73%,56.21%{transform:scale(0.685,1)}56.23%,56.71%{transform:scale(0.694,1)}56.73%,57.2%{transform:scale(0.704,1)}57.22%,57.7%{transform:scale(0.713,1)}57.72%,58.2%{transform:scale(0.722,1)}58.22%,58.7%{transform:scale(0.731,1)}58.72%,59.19%{transform:scale(0.741,1)}59.21%,59.69%{transform:scale(0.750,1)}59.71%,60.69%{transform:scale(0.759,1)}60.71%,61.18%{transform:scale(0.769,1)}61.2%,61.68%{transform:scale(0.778,1)}61.7%,62.18%{transform:scale(0.787,1)}62.2%,62.68%{transform:scale(0.796,1)}62.7%,63.17%{transform:scale(0.806,1)}63.19%,63.67%{transform:scale(0.815,1)}63.69%,64.17%{transform:scale(0.824,1)}64.19%,64.67%{transform:scale(0.833,1)}64.69%,65.16%{transform:scale(0.843,1)}65.18%,65.66%{transform:scale(0.852,1)}65.68%,66.16%{transform:scale(0.861,1)}66.18%,66.66%{transform:scale(0.870,1)}66.68%,67.15%{transform:scale(0.880,1)}67.17%,67.65%{transform:scale(0.889,1)}67.67%,68.15%{transform:scale(0.898,1)}68.17%,68.65%{transform:scale(0.907,1)}68.67%,69.14%{transform:scale(0.917,1)}69.16%,69.64%{transform:scale(0.926,1)}69.66%,70.14%{transform:scale(0.935,1)}70.16%,70.64%{transform:scale(0.944,1)}70.66%,71.13%{transform:scale(0.954,1)}71.15%,71.63%{transform:scale(0.963,1)}71.65%,72.13%{transform:scale(0.972,1)}72.15%,72.63%{transform:scale(0.981,1)}72.65%,73.12%{transform:scale(0.991,1)}73.14%,100%{transform:scale(1.000,1)}}.u.u0{fill:var(--c4);animation-name:u0;transform-origin:0.0px 0}.s{shape-rendering:geometricPrecision;fill:var(--cs);animation:none linear 20100ms infinite}@keyframes s0{0%,99.5%{transform:translate(0px,-16px)}0.5%{transform:translate(0px,0px)}23.88%{transform:translate(752px,0px)}24.38%{transform:translate(752px,16px)}29.35%{transform:translate(592px,16px)}29.85%{transform:translate(592px,32px)}37.31%{transform:translate(832px,32px)}38.31%{transform:translate(832px,0px)}39.8%{transform:translate(784px,0px)}40.3%{transform:translate(784px,16px)}41.29%{transform:translate(816px,16px)}42.29%{transform:translate(816px,48px)}42.79%{transform:translate(832px,48px)}43.28%{transform:translate(832px,64px)}44.28%{transform:translate(800px,64px)}44.78%{transform:translate(800px,48px)}51.24%{transform:translate(592px,48px)}51.74%{transform:translate(592px,64px)}57.71%{transform:translate(784px,64px)}58.21%{transform:translate(784px,80px)}59.7%{transform:translate(832px,80px)}60.2%{transform:translate(832px,96px)}62.19%{transform:translate(768px,96px)}62.69%{transform:translate(768px,80px)}68.16%{transform:translate(592px,80px)}68.66%{transform:translate(592px,96px)}73.13%{transform:translate(736px,96px)}73.63%{transform:translate(736px,80px)}94.53%{transform:translate(64px,80px)}96.02%{transform:translate(64px,32px)}96.52%{transform:translate(48px,32px)}98.01%{transform:translate(48px,-16px)}}.s.s0{transform:translate(0px,-16px);animation-name:s0}@keyframes s1{0%,99.5%{transform:translate(16px,-16px)}0.5%{transform:translate(0px,-16px)}1%{transform:translate(0px,0px)}24.38%{transform:translate(752px,0px)}24.88%{transform:translate(752px,16px)}29.85%{transform:translate(592px,16px)}30.35%{transform:translate(592px,32px)}37.81%{transform:translate(832px,32px)}38.81%{transform:translate(832px,0px)}40.3%{transform:translate(784px,0px)}40.8%{transform:translate(784px,16px)}41.79%{transform:translate(816px,16px)}42.79%{transform:translate(816px,48px)}43.28%{transform:translate(832px,48px)}43.78%{transform:translate(832px,64px)}44.78%{transform:translate(800px,64px)}45.27%{transform:translate(800px,48px)}51.74%{transform:translate(592px,48px)}52.24%{transform:translate(592px,64px)}58.21%{transform:translate(784px,64px)}58.71%{transform:translate(784px,80px)}60.2%{transform:translate(832px,80px)}60.7%{transform:translate(832px,96px)}62.69%{transform:translate(768px,96px)}63.18%{transform:translate(768px,80px)}68.66%{transform:translate(592px,80px)}69.15%{transform:translate(592px,96px)}73.63%{transform:translate(736px,96px)}74.13%{transform:translate(736px,80px)}95.02%{transform:translate(64px,80px)}96.52%{transform:translate(64px,32px)}97.01%{transform:translate(48px,32px)}98.51%{transform:translate(48px,-16px)}}.s.s1{transform:translate(16px,-16px);animation-name:s1}@keyframes s2{0%,99.5%{transform:translate(32px,-16px)}1%{transform:translate(0px,-16px)}1.49%{transform:translate(0px,0px)}24.88%{transform:translate(752px,0px)}25.37%{transform:translate(752px,16px)}30.35%{transform:translate(592px,16px)}30.85%{transform:translate(592px,32px)}38.31%{transform:translate(832px,32px)}39.3%{transform:translate(832px,0px)}40.8%{transform:translate(784px,0px)}41.29%{transform:translate(784px,16px)}42.29%{transform:translate(816px,16px)}43.28%{transform:translate(816px,48px)}43.78%{transform:translate(832px,48px)}44.28%{transform:translate(832px,64px)}45.27%{transform:translate(800px,64px)}45.77%{transform:translate(800px,48px)}52.24%{transform:translate(592px,48px)}52.74%{transform:translate(592px,64px)}58.71%{transform:translate(784px,64px)}59.2%{transform:translate(784px,80px)}60.7%{transform:translate(832px,80px)}61.19%{transform:translate(832px,96px)}63.18%{transform:translate(768px,96px)}63.68%{transform:translate(768px,80px)}69.15%{transform:translate(592px,80px)}69.65%{transform:translate(592px,96px)}74.13%{transform:translate(736px,96px)}74.63%{transform:translate(736px,80px)}95.52%{transform:translate(64px,80px)}97.01%{transform:translate(64px,32px)}97.51%{transform:translate(48px,32px)}99%{transform:translate(48px,-16px)}}.s.s2{transform:translate(32px,-16px);animation-name:s2}@keyframes s3{0%,99.5%{transform:translate(48px,-16px)}1.49%{transform:translate(0px,-16px)}1.99%{transform:translate(0px,0px)}25.37%{transform:translate(752px,0px)}25.87%{transform:translate(752px,16px)}30.85%{transform:translate(592px,16px)}31.34%{transform:translate(592px,32px)}38.81%{transform:translate(832px,32px)}39.8%{transform:translate(832px,0px)}41.29%{transform:translate(784px,0px)}41.79%{transform:translate(784px,16px)}42.79%{transform:translate(816px,16px)}43.78%{transform:translate(816px,48px)}44.28%{transform:translate(832px,48px)}44.78%{transform:translate(832px,64px)}45.77%{transform:translate(800px,64px)}46.27%{transform:translate(800px,48px)}52.74%{transform:translate(592px,48px)}53.23%{transform:translate(592px,64px)}59.2%{transform:translate(784px,64px)}59.7%{transform:translate(784px,80px)}61.19%{transform:translate(832px,80px)}61.69%{transform:translate(832px,96px)}63.68%{transform:translate(768px,96px)}64.18%{transform:translate(768px,80px)}69.65%{transform:translate(592px,80px)}70.15%{transform:translate(592px,96px)}74.63%{transform:translate(736px,96px)}75.12%{transform:translate(736px,80px)}96.02%{transform:translate(64px,80px)}97.51%{transform:translate(64px,32px)}98.01%{transform:translate(48px,32px)}}.s.s3{transform:translate(48px,-16px);animation-name:s3}</style><rect class="c" x="2" y="2" rx="2" ry="2"/><rect class="c" x="18" y="2" rx="2" ry="2"/><rect class="c" x="34" y="2" rx="2" ry="2"/><rect class="c" x="50" y="2" rx="2" ry="2"/><rect class="c" x="66" y="2" rx="2" ry="2"/><rect class="c" x="82" y="2" rx="2" ry="2"/><rect class="c" x="98" y="2" rx="2" ry="2"/><rect class="c" x="114" y="2" rx="2" ry="2"/><rect class="c" x="130" y="2" rx="2" ry="2"/><rect class="c" x="146" y="2" rx="2" ry="2"/><rect class="c" x="162" y="2" rx="2" ry="2"/><rect class="c" x="178" y="2" rx="2" ry="2"/><rect class="c" x="194" y="2" rx="2" ry="2"/><rect class="c" x="210" y="2" rx="2" ry="2"/><rect class="c" x="226" y="2" rx="2" ry="2"/><rect class="c" x="242" y="2" rx="2" ry="2"/><rect class="c" x="258" y="2" rx="2" ry="2"/><rect class="c" x="274" y="2" rx="2" ry="2"/><rect class="c" x="290" y="2" rx="2" ry="2"/><rect class="c" x="306" y="2" rx="2" ry="2"/><rect class="c" x="322" y="2" rx="2" ry="2"/><rect class="c" x="338" y="2" rx="2" ry="2"/><rect class="c" x="354" y="2" rx="2" ry="2"/><rect class="c" x="370" y="2" rx="2" ry="2"/><rect class="c" x="386" y="2" rx="2" ry="2"/><rect class="c" x="402" y="2" rx="2" ry="2"/><rect class="c" x="418" y="2" rx="2" ry="2"/><rect class="c" x="434" y="2" rx="2" ry="2"/><rect class="c" x="450" y="2" rx="2" ry="2"/><rect class="c" x="466" y="2" rx="2" ry="2"/><rect class="c" x="482" y="2" rx="2" ry="2"/><rect class="c" x="498" y="2" rx="2" ry="2"/><rect class="c" x="514" y="2" rx="2" ry="2"/><rect class="c" x="530" y="2" rx="2" ry="2"/><rect class="c" x="546" y="2" rx="2" ry="2"/><rect class="c" x="562" y="2" rx="2" ry="2"/><rect class="c" x="578" y="2" rx="2" ry="2"/><rect class="c c0" x="594" y="2" rx="2" ry="2"/><rect class="c c1" x="610" y="2" rx="2" ry="2"/><rect class="c c2" x="626" y="2" rx="2" ry="2"/><rect class="c c3" x="642" y="2" rx="2" ry="2"/><rect class="c c4" x="658" y="2" rx="2" ry="2"/><rect class="c c5" x="674" y="2" rx="2" ry="2"/><rect class="c c6" x="690" y="2" rx="2" ry="2"/><rect class="c c7" x="706" y="2" rx="2" ry="2"/><rect class="c c8" x="722" y="2" rx="2" ry="2"/><rect class="c c9" x="738" y="2" rx="2" ry="2"/><rect class="c ca" x="754" y="2" rx="2" ry="2"/><rect class="c" x="770" y="2" rx="2" ry="2"/><rect class="c cb" x="786" y="2" rx="2" ry="2"/><rect class="c cc" x="802" y="2" rx="2" ry="2"/><rect class="c cd" x="818" y="2" rx="2" ry="2"/><rect class="c ce" x="834" y="2" rx="2" ry="2"/><rect class="c" x="2" y="18" rx="2" ry="2"/><rect class="c" x="18" y="18" rx="2" ry="2"/><rect class="c" x="34" y="18" rx="2" ry="2"/><rect class="c" x="50" y="18" rx="2" ry="2"/><rect class="c" x="66" y="18" rx="2" ry="2"/><rect class="c" x="82" y="18" rx="2" ry="2"/><rect class="c" x="98" y="18" rx="2" ry="2"/><rect class="c" x="114" y="18" rx="2" ry="2"/><rect class="c" x="130" y="18" rx="2" ry="2"/><rect class="c" x="146" y="18" rx="2" ry="2"/><rect class="c" x="162" y="18" rx="2" ry="2"/><rect class="c" x="178" y="18" rx="2" ry="2"/><rect class="c" x="194" y="18" rx="2" ry="2"/><rect class="c" x="210" y="18" rx="2" ry="2"/><rect class="c" x="226" y="18" rx="2" ry="2"/><rect class="c" x="242" y="18" rx="2" ry="2"/><rect class="c" x="258" y="18" rx="2" ry="2"/><rect class="c" x="274" y="18" rx="2" ry="2"/><rect class="c" x="290" y="18" rx="2" ry="2"/><rect class="c" x="306" y="18" rx="2" ry="2"/><rect class="c" x="322" y="18" rx="2" ry="2"/><rect class="c" x="338" y="18" rx="2" ry="2"/><rect class="c" x="354" y="18" rx="2" ry="2"/><rect class="c" x="370" y="18" rx="2" ry="2"/><rect class="c" x="386" y="18" rx="2" ry="2"/><rect class="c" x="402" y="18" rx="2" ry="2"/><rect class="c" x="418" y="18" rx="2" ry="2"/><rect class="c" x="434" y="18" rx="2" ry="2"/><rect class="c" x="450" y="18" rx="2" ry="2"/><rect class="c" x="466" y="18" rx="2" ry="2"/><rect class="c" x="482" y="18" rx="2" ry="2"/><rect class="c" x="498" y="18" rx="2" ry="2"/><rect class="c" x="514" y="18" rx="2" ry="2"/><rect class="c" x="530" y="18" rx="2" ry="2"/><rect class="c" x="546" y="18" rx="2" ry="2"/><rect class="c" x="562" y="18" rx="2" ry="2"/><rect class="c" x="578" y="18" rx="2" ry="2"/><rect class="c cf" x="594" y="18" rx="2" ry="2"/><rect class="c cg" x="610" y="18" rx="2" ry="2"/><rect class="c ch" x="626" y="18" rx="2" ry="2"/><rect class="c ci" x="642" y="18" rx="2" ry="2"/><rect class="c cj" x="658" y="18" rx="2" ry="2"/><rect class="c ck" x="674" y="18" rx="2" ry="2"/><rect class="c cl" x="690" y="18" rx="2" ry="2"/><rect class="c cm" x="706" y="18" rx="2" ry="2"/><rect class="c cn" x="722" y="18" rx="2" ry="2"/><rect class="c co" x="738" y="18" rx="2" ry="2"/><rect class="c cp" x="754" y="18" rx="2" ry="2"/><rect class="c" x="770" y="18" rx="2" ry="2"/><rect class="c cq" x="786" y="18" rx="2" ry="2"/><rect class="c cr" x="802" y="18" rx="2" ry="2"/><rect class="c cs" x="818" y="18" rx="2" ry="2"/><rect class="c ct" x="834" y="18" rx="2" ry="2"/><rect class="c" x="2" y="34" rx="2" ry="2"/><rect class="c" x="18" y="34" rx="2" ry="2"/><rect class="c" x="34" y="34" rx="2" ry="2"/><rect class="c" x="50" y="34" rx="2" ry="2"/><rect class="c" x="66" y="34" rx="2" ry="2"/><rect class="c" x="82" y="34" rx="2" ry="2"/><rect class="c" x="98" y="34" rx="2" ry="2"/><rect class="c" x="114" y="34" rx="2" ry="2"/><rect class="c" x="130" y="34" rx="2" ry="2"/><rect class="c" x="146" y="34" rx="2" ry="2"/><rect class="c" x="162" y="34" rx="2" ry="2"/><rect class="c" x="178" y="34" rx="2" ry="2"/><rect class="c" x="194" y="34" rx="2" ry="2"/><rect class="c" x="210" y="34" rx="2" ry="2"/><rect class="c" x="226" y="34" rx="2" ry="2"/><rect class="c" x="242" y="34" rx="2" ry="2"/><rect class="c" x="258" y="34" rx="2" ry="2"/><rect class="c" x="274" y="34" rx="2" ry="2"/><rect class="c" x="290" y="34" rx="2" ry="2"/><rect class="c" x="306" y="34" rx="2" ry="2"/><rect class="c" x="322" y="34" rx="2" ry="2"/><rect class="c" x="338" y="34" rx="2" ry="2"/><rect class="c" x="354" y="34" rx="2" ry="2"/><rect class="c" x="370" y="34" rx="2" ry="2"/><rect class="c" x="386" y="34" rx="2" ry="2"/><rect class="c" x="402" y="34" rx="2" ry="2"/><rect class="c" x="418" y="34" rx="2" ry="2"/><rect class="c" x="434" y="34" rx="2" ry="2"/><rect class="c" x="450" y="34" rx="2" ry="2"/><rect class="c" x="466" y="34" rx="2" ry="2"/><rect class="c" x="482" y="34" rx="2" ry="2"/><rect class="c" x="498" y="34" rx="2" ry="2"/><rect class="c" x="514" y="34" rx="2" ry="2"/><rect class="c" x="530" y="34" rx="2" ry="2"/><rect class="c" x="546" y="34" rx="2" ry="2"/><rect class="c" x="562" y="34" rx="2" ry="2"/><rect class="c" x="578" y="34" rx="2" ry="2"/><rect class="c cu" x="594" y="34" rx="2" ry="2"/><rect class="c cv" x="610" y="34" rx="2" ry="2"/><rect class="c cw" x="626" y="34" rx="2" ry="2"/><rect class="c cx" x="642" y="34" rx="2" ry="2"/><rect class="c cy" x="658" y="34" rx="2" ry="2"/><rect class="c cz" x="674" y="34" rx="2" ry="2"/><rect class="c c10" x="690" y="34" rx="2" ry="2"/><rect class="c c11" x="706" y="34" rx="2" ry="2"/><rect class="c c12" x="722" y="34" rx="2" ry="2"/><rect class="c c13" x="738" y="34" rx="2" ry="2"/><rect class="c c14" x="754" y="34" rx="2" ry="2"/><rect class="c c15" x="770" y="34" rx="2" ry="2"/><rect class="c c16" x="786" y="34" rx="2" ry="2"/><rect class="c c17" x="802" y="34" rx="2" ry="2"/><rect class="c c18" x="818" y="34" rx="2" ry="2"/><rect class="c c19" x="834" y="34" rx="2" ry="2"/><rect class="c" x="2" y="50" rx="2" ry="2"/><rect class="c" x="18" y="50" rx="2" ry="2"/><rect class="c" x="34" y="50" rx="2" ry="2"/><rect class="c" x="50" y="50" rx="2" ry="2"/><rect class="c" x="66" y="50" rx="2" ry="2"/><rect class="c" x="82" y="50" rx="2" ry="2"/><rect class="c" x="98" y="50" rx="2" ry="2"/><rect class="c" x="114" y="50" rx="2" ry="2"/><rect class="c" x="130" y="50" rx="2" ry="2"/><rect class="c" x="146" y="50" rx="2" ry="2"/><rect class="c" x="162" y="50" rx="2" ry="2"/><rect class="c" x="178" y="50" rx="2" ry="2"/><rect class="c" x="194" y="50" rx="2" ry="2"/><rect class="c" x="210" y="50" rx="2" ry="2"/><rect class="c" x="226" y="50" rx="2" ry="2"/><rect class="c" x="242" y="50" rx="2" ry="2"/><rect class="c" x="258" y="50" rx="2" ry="2"/><rect class="c" x="274" y="50" rx="2" ry="2"/><rect class="c" x="290" y="50" rx="2" ry="2"/><rect class="c" x="306" y="50" rx="2" ry="2"/><rect class="c" x="322" y="50" rx="2" ry="2"/><rect class="c" x="338" y="50" rx="2" ry="2"/><rect class="c" x="354" y="50" rx="2" ry="2"/><rect class="c" x="370" y="50" rx="2" ry="2"/><rect class="c" x="386" y="50" rx="2" ry="2"/><rect class="c" x="402" y="50" rx="2" ry="2"/><rect class="c" x="418" y="50" rx="2" ry="2"/><rect class="c" x="434" y="50" rx="2" ry="2"/><rect class="c" x="450" y="50" rx="2" ry="2"/><rect class="c" x="466" y="50" rx="2" ry="2"/><rect class="c" x="482" y="50" rx="2" ry="2"/><rect class="c" x="498" y="50" rx="2" ry="2"/><rect class="c" x="514" y="50" rx="2" ry="2"/><rect class="c" x="530" y="50" rx="2" ry="2"/><rect class="c" x="546" y="50" rx="2" ry="2"/><rect class="c" x="562" y="50" rx="2" ry="2"/><rect class="c" x="578" y="50" rx="2" ry="2"/><rect class="c c1a" x="594" y="50" rx="2" ry="2"/><rect class="c c1b" x="610" y="50" rx="2" ry="2"/><rect class="c c1c" x="626" y="50" rx="2" ry="2"/><rect class="c c1d" x="642" y="50" rx="2" ry="2"/><rect class="c c1e" x="658" y="50" rx="2" ry="2"/><rect class="c c1f" x="674" y="50" rx="2" ry="2"/><rect class="c c1g" x="690" y="50" rx="2" ry="2"/><rect class="c c1h" x="706" y="50" rx="2" ry="2"/><rect class="c c1i" x="722" y="50" rx="2" ry="2"/><rect class="c c1j" x="738" y="50" rx="2" ry="2"/><rect class="c c1k" x="754" y="50" rx="2" ry="2"/><rect class="c c1l" x="770" y="50" rx="2" ry="2"/><rect class="c c1m" x="786" y="50" rx="2" ry="2"/><rect class="c c1n" x="802" y="50" rx="2" ry="2"/><rect class="c c1o" x="818" y="50" rx="2" ry="2"/><rect class="c c1p" x="834" y="50" rx="2" ry="2"/><rect class="c" x="2" y="66" rx="2" ry="2"/><rect class="c" x="18" y="66" rx="2" ry="2"/><rect class="c" x="34" y="66" rx="2" ry="2"/><rect class="c" x="50" y="66" rx="2" ry="2"/><rect class="c" x="66" y="66" rx="2" ry="2"/><rect class="c" x="82" y="66" rx="2" ry="2"/><rect class="c" x="98" y="66" rx="2" ry="2"/><rect class="c" x="114" y="66" rx="2" ry="2"/><rect class="c" x="130" y="66" rx="2" ry="2"/><rect class="c" x="146" y="66" rx="2" ry="2"/><rect class="c" x="162" y="66" rx="2" ry="2"/><rect class="c" x="178" y="66" rx="2" ry="2"/><rect class="c" x="194" y="66" rx="2" ry="2"/><rect class="c" x="210" y="66" rx="2" ry="2"/><rect class="c" x="226" y="66" rx="2" ry="2"/><rect class="c" x="242" y="66" rx="2" ry="2"/><rect class="c" x="258" y="66" rx="2" ry="2"/><rect class="c" x="274" y="66" rx="2" ry="2"/><rect class="c" x="290" y="66" rx="2" ry="2"/><rect class="c" x="306" y="66" rx="2" ry="2"/><rect class="c" x="322" y="66" rx="2" ry="2"/><rect class="c" x="338" y="66" rx="2" ry="2"/><rect class="c" x="354" y="66" rx="2" ry="2"/><rect class="c" x="370" y="66" rx="2" ry="2"/><rect class="c" x="386" y="66" rx="2" ry="2"/><rect class="c" x="402" y="66" rx="2" ry="2"/><rect class="c" x="418" y="66" rx="2" ry="2"/><rect class="c" x="434" y="66" rx="2" ry="2"/><rect class="c" x="450" y="66" rx="2" ry="2"/><rect class="c" x="466" y="66" rx="2" ry="2"/><rect class="c" x="482" y="66" rx="2" ry="2"/><rect class="c" x="498" y="66" rx="2" ry="2"/><rect class="c" x="514" y="66" rx="2" ry="2"/><rect class="c" x="530" y="66" rx="2" ry="2"/><rect class="c" x="546" y="66" rx="2" ry="2"/><rect class="c" x="562" y="66" rx="2" ry="2"/><rect class="c" x="578" y="66" rx="2" ry="2"/><rect class="c c1q" x="594" y="66" rx="2" ry="2"/><rect class="c c1r" x="610" y="66" rx="2" ry="2"/><rect class="c c1s" x="626" y="66" rx="2" ry="2"/><rect class="c c1t" x="642" y="66" rx="2" ry="2"/><rect class="c c1u" x="658" y="66" rx="2" ry="2"/><rect class="c c1v" x="674" y="66" rx="2" ry="2"/><rect class="c c1w" x="690" y="66" rx="2" ry="2"/><rect class="c c1x" x="706" y="66" rx="2" ry="2"/><rect class="c c1y" x="722" y="66" rx="2" ry="2"/><rect class="c c1z" x="738" y="66" rx="2" ry="2"/><rect class="c c20" x="754" y="66" rx="2" ry="2"/><rect class="c c21" x="770" y="66" rx="2" ry="2"/><rect class="c c22" x="786" y="66" rx="2" ry="2"/><rect class="c c23" x="802" y="66" rx="2" ry="2"/><rect class="c c24" x="818" y="66" rx="2" ry="2"/><rect class="c c25" x="834" y="66" rx="2" ry="2"/><rect class="c" x="2" y="82" rx="2" ry="2"/><rect class="c" x="18" y="82" rx="2" ry="2"/><rect class="c" x="34" y="82" rx="2" ry="2"/><rect class="c" x="50" y="82" rx="2" ry="2"/><rect class="c" x="66" y="82" rx="2" ry="2"/><rect class="c" x="82" y="82" rx="2" ry="2"/><rect class="c" x="98" y="82" rx="2" ry="2"/><rect class="c" x="114" y="82" rx="2" ry="2"/><rect class="c" x="130" y="82" rx="2" ry="2"/><rect class="c" x="146" y="82" rx="2" ry="2"/><rect class="c" x="162" y="82" rx="2" ry="2"/><rect class="c" x="178" y="82" rx="2" ry="2"/><rect class="c" x="194" y="82" rx="2" ry="2"/><rect class="c" x="210" y="82" rx="2" ry="2"/><rect class="c" x="226" y="82" rx="2" ry="2"/><rect class="c" x="242" y="82" rx="2" ry="2"/><rect class="c" x="258" y="82" rx="2" ry="2"/><rect class="c" x="274" y="82" rx="2" ry="2"/><rect class="c" x="290" y="82" rx="2" ry="2"/><rect class="c" x="306" y="82" rx="2" ry="2"/><rect class="c" x="322" y="82" rx="2" ry="2"/><rect class="c" x="338" y="82" rx="2" ry="2"/><rect class="c" x="354" y="82" rx="2" ry="2"/><rect class="c" x="370" y="82" rx="2" ry="2"/><rect class="c" x="386" y="82" rx="2" ry="2"/><rect class="c" x="402" y="82" rx="2" ry="2"/><rect class="c" x="418" y="82" rx="2" ry="2"/><rect class="c" x="434" y="82" rx="2" ry="2"/><rect class="c" x="450" y="82" rx="2" ry="2"/><rect class="c" x="466" y="82" rx="2" ry="2"/><rect class="c" x="482" y="82" rx="2" ry="2"/><rect class="c" x="498" y="82" rx="2" ry="2"/><rect class="c" x="514" y="82" rx="2" ry="2"/><rect class="c" x="530" y="82" rx="2" ry="2"/><rect class="c" x="546" y="82" rx="2" ry="2"/><rect class="c" x="562" y="82" rx="2" ry="2"/><rect class="c" x="578" y="82" rx="2" ry="2"/><rect class="c c26" x="594" y="82" rx="2" ry="2"/><rect class="c c27" x="610" y="82" rx="2" ry="2"/><rect class="c c28" x="626" y="82" rx="2" ry="2"/><rect class="c c29" x="642" y="82" rx="2" ry="2"/><rect class="c c2a" x="658" y="82" rx="2" ry="2"/><rect class="c c2b" x="674" y="82" rx="2" ry="2"/><rect class="c c2c" x="690" y="82" rx="2" ry="2"/><rect class="c c2d" x="706" y="82" rx="2" ry="2"/><rect class="c c2e" x="722" y="82" rx="2" ry="2"/><rect class="c c2f" x="738" y="82" rx="2" ry="2"/><rect class="c c2g" x="754" y="82" rx="2" ry="2"/><rect class="c c2h" x="770" y="82" rx="2" ry="2"/><rect class="c c2i" x="786" y="82" rx="2" ry="2"/><rect class="c c2j" x="802" y="82" rx="2" ry="2"/><rect class="c c2k" x="818" y="82" rx="2" ry="2"/><rect class="c c2l" x="834" y="82" rx="2" ry="2"/><rect class="c" x="2" y="98" rx="2" ry="2"/><rect class="c" x="18" y="98" rx="2" ry="2"/><rect class="c" x="34" y="98" rx="2" ry="2"/><rect class="c" x="50" y="98" rx="2" ry="2"/><rect class="c" x="66" y="98" rx="2" ry="2"/><rect class="c" x="82" y="98" rx="2" ry="2"/><rect class="c" x="98" y="98" rx="2" ry="2"/><rect class="c" x="114" y="98" rx="2" ry="2"/><rect class="c" x="130" y="98" rx="2" ry="2"/><rect class="c" x="146" y="98" rx="2" ry="2"/><rect class="c" x="162" y="98" rx="2" ry="2"/><rect class="c" x="178" y="98" rx="2" ry="2"/><rect class="c" x="194" y="98" rx="2" ry="2"/><rect class="c" x="210" y="98" rx="2" ry="2"/><rect class="c" x="226" y="98" rx="2" ry="2"/><rect class="c" x="242" y="98" rx="2" ry="2"/><rect class="c" x="258" y="98" rx="2" ry="2"/><rect class="c" x="274" y="98" rx="2" ry="2"/><rect class="c" x="290" y="98" rx="2" ry="2"/><rect class="c" x="306" y="98" rx="2" ry="2"/><rect class="c" x="322" y="98" rx="2" ry="2"/><rect class="c" x="338" y="98" rx="2" ry="2"/><rect class="c" x="354" y="98" rx="2" ry="2"/><rect class="c" x="370" y="98" rx="2" ry="2"/><rect class="c" x="386" y="98" rx="2" ry="2"/><rect class="c" x="402" y="98" rx="2" ry="2"/><rect class="c" x="418" y="98" rx="2" ry="2"/><rect class="c" x="434" y="98" rx="2" ry="2"/><rect class="c" x="450" y="98" rx="2" ry="2"/><rect class="c" x="466" y="98" rx="2" ry="2"/><rect class="c" x="482" y="98" rx="2" ry="2"/><rect class="c" x="498" y="98" rx="2" ry="2"/><rect class="c" x="514" y="98" rx="2" ry="2"/><rect class="c" x="530" y="98" rx="2" ry="2"/><rect class="c" x="546" y="98" rx="2" ry="2"/><rect class="c" x="562" y="98" rx="2" ry="2"/><rect class="c" x="578" y="98" rx="2" ry="2"/><rect class="c c2m" x="594" y="98" rx="2" ry="2"/><rect class="c c2n" x="610" y="98" rx="2" ry="2"/><rect class="c c2o" x="626" y="98" rx="2" ry="2"/><rect class="c c2p" x="642" y="98" rx="2" ry="2"/><rect class="c c2q" x="658" y="98" rx="2" ry="2"/><rect class="c c2r" x="674" y="98" rx="2" ry="2"/><rect class="c c2s" x="690" y="98" rx="2" ry="2"/><rect class="c c2t" x="706" y="98" rx="2" ry="2"/><rect class="c c2u" x="722" y="98" rx="2" ry="2"/><rect class="c c2v" x="738" y="98" rx="2" ry="2"/><rect class="c" x="754" y="98" rx="2" ry="2"/><rect class="c c2w" x="770" y="98" rx="2" ry="2"/><rect class="c c2x" x="786" y="98" rx="2" ry="2"/><rect class="c c2y" x="802" y="98" rx="2" ry="2"/><rect class="c c2z" x="818" y="98" rx="2" ry="2"/><rect class="c" x="834" y="98" rx="2" ry="2"/><rect class="u u0" height="12" width="848.6" x="0.0" y="144"/><rect class="s s0" x="0.8" y="0.8" width="14.4" height="14.4" rx="4.5" ry="4.5"/><rect class="s s1" x="1.8" y="1.8" width="12.3" height="12.3" rx="4.1" ry="4.1"/><rect class="s s2" x="2.6" y="2.6" width="10.8" height="10.8" rx="3.6" ry="3.6"/><rect class="s s3" x="3.0" y="3.0" width="9.9" height="9.9" rx="3.3" ry="3.3"/></svg>